<svg width="28" height="28" viewBox="0 0 28 28" fill="none" xmlns="http://www.w3.org/2000/svg">
<circle cx="14" cy="14" r="14" fill="black"/>
<path d="M9.52114 11.0004H13.135V11.2862H9.85242V13.4377H12.9393V13.7236H9.85242V16.0857H13.1727V16.3715H9.52114V11.0004ZM13.4588 11.0004H13.8428L15.5443 13.3625L17.2835 11.0004L19.6491 7.99999L15.7626 13.6107L17.7654 16.3715H17.3663L15.5443 13.859L13.7148 16.3715H13.3233L15.341 13.6107L13.4588 11.0004ZM17.9084 11.2862V11.0004H22.0267V11.2862H20.1294V16.3715H19.7982V11.2862H17.9084Z" fill="white"/>
<path d="M5 11.0004H5.41409L11.1242 19.504L8.76448 16.3715L5.34633 11.4066L5.33127 16.3715H5V11.0004Z" fill="white"/>
<path d="M21.9934 15.9994C22.0619 15.9994 22.1118 15.9472 22.1118 15.8798C22.1118 15.8123 22.0619 15.7601 21.9934 15.7601C21.9257 15.7601 21.8749 15.8123 21.8749 15.8798C21.8749 15.9472 21.9257 15.9994 21.9934 15.9994ZM22.3189 15.6847C22.3189 15.8838 22.4631 16.0138 22.6734 16.0138C22.8974 16.0138 23.0328 15.8798 23.0328 15.6469V14.8271H22.8523V15.6461C22.8523 15.7754 22.787 15.8444 22.6718 15.8444C22.5687 15.8444 22.4986 15.7802 22.4961 15.6847H22.3189ZM23.2688 15.6742C23.2817 15.8814 23.455 16.0138 23.7128 16.0138C23.9884 16.0138 24.1608 15.8749 24.1608 15.6533C24.1608 15.4791 24.0625 15.3828 23.824 15.3274L23.6959 15.296C23.5444 15.2607 23.4832 15.2133 23.4832 15.1306C23.4832 15.0263 23.5782 14.958 23.7209 14.958C23.8562 14.958 23.9497 15.0247 23.9666 15.1314H24.1423C24.1318 14.9363 23.9594 14.799 23.7233 14.799C23.4695 14.799 23.3003 14.9363 23.3003 15.1427C23.3003 15.3129 23.3962 15.4141 23.6064 15.463L23.7563 15.4992C23.9102 15.5353 23.9779 15.5883 23.9779 15.6766C23.9779 15.7794 23.8715 15.8541 23.7265 15.8541C23.571 15.8541 23.463 15.7842 23.4477 15.6742H23.2688Z" fill="#D4D4D4"/>
</svg>
