<svg width="216" height="216" viewBox="0 0 216 216" fill="none" xmlns="http://www.w3.org/2000/svg">
<circle cx="108" cy="108" r="108" fill="#E6FAF8"/>
<path d="M120.807 98.3267C127.188 93.049 130.015 61.859 132.778 50.6476C135.54 39.4362 146.964 40.0048 146.964 40.0048C146.964 40.0048 143.998 45.1662 145.208 49.0179C146.417 52.8695 154.704 56.3125 154.704 56.3125L152.917 61.0245C152.917 61.0245 149.185 60.5471 146.964 64.9897C144.743 69.4323 148.391 113.421 148.391 113.421C148.391 113.421 135.043 139.75 135.043 150.866C135.043 161.982 140.304 171.299 140.304 171.299H132.921C132.921 171.299 122.09 158.409 119.868 151.967C117.647 145.525 118.535 139.084 118.535 139.084C118.535 139.084 106.762 138.417 96.3222 139.084C85.8823 139.75 78.92 148.724 77.6635 153.744C76.4069 158.764 75.8864 171.299 75.8864 171.299H70.0484C66.4951 160.333 63.673 156.403 65.204 150.866C69.4446 135.53 68.6117 126.831 67.6298 122.957C66.6479 119.082 60 115.701 60 115.701C63.2565 109.066 66.5806 105.878 80.8792 105.546C95.1778 105.213 114.426 103.604 120.807 98.3267Z" fill="#EC4815"/>
<path d="M83.6787 150.224C83.6787 150.224 85.1873 164.185 93.2018 171.299H100.07C93.2018 163.519 92.4529 143.238 92.4529 143.238C88.9594 144.375 84.123 148.447 83.6787 150.224Z" fill="#EC4815"/>
</svg>
